<?xml version="1.0" encoding="utf-8"?>
<!-- Generator: Adobe Illustrator 20.1.0, SVG Export Plug-In . SVG Version: 6.00 Build 0)  -->
<svg version="1.1" id="Layer_1" xmlns="http://www.w3.org/2000/svg" xmlns:xlink="http://www.w3.org/1999/xlink" x="0px" y="0px"
	 viewBox="0 0 612 792" style="enable-background:new 0 0 612 792;" xml:space="preserve">
<style type="text/css">
	.st0{fill:#FFFFFF;}
</style>
<g>
	<path d="M272.9,607.4c-4.3-13.6-7.3-25.1-11.6-36.1c-5.9-15.2-10.9-17.1-25.1-9.5c-10.5,5.6-20.3,12.4-32.5,20
		c0-14.5,0.2-26.9-0.1-39.2c-0.3-14.1-5-17.9-19-15.3c-11.7,2.2-23.4,4.9-38.4,8.2c5.3-12.7,10-22.8,13.8-33.3
		c6-16.6,2.9-21.9-14.4-24.8c-11.7-1.9-23.6-3-36.9-4.7c9.2-10.2,17.9-19.1,25.9-28.6c10.1-12,9.4-17.3-3.7-25.2
		c-10.7-6.4-22.2-11.4-35.7-18.3c11.5-5.7,21.3-10.3,30.9-15.4c18.5-9.9,19.6-16.5,5.2-32.1c-6.8-7.4-14.5-13.9-25.1-23.8
		c15.8-2.3,27.9-3.5,39.7-5.8c16.7-3.3,19.3-8,13.6-24.1c-3.9-10.8-9-21.1-14.8-34.5c13.6,3.2,24.9,6.1,36.3,8.5
		c16.7,3.4,22.6-1.2,22.6-18.2c0-11.4-1.1-22.9-1.9-36.9c11.5,7.2,21.6,14.1,32.2,20c14.9,8.4,19.9,6.6,26.4-9.1
		c2.3-5.5,3.7-11.5,5.5-17.2c1.8-5.6,3.6-11.2,6.1-18.8c8.9,11.5,16.4,21.4,24.2,31.1c8.1,10,16.8,10.2,25.1,0.1
		c7.9-9.6,15.6-19.5,25.2-31.6c3.9,12.8,6.7,23.7,10.6,34.1c6.5,17.7,11.7,19.6,28,10.5c9.6-5.4,18.6-11.7,30.5-19.3
		c0,14.2-0.2,26.4,0,38.6c0.2,15.2,4.7,18.9,19.6,16.1c11.7-2.2,23.3-4.9,37.7-8c-5.6,13.9-10.2,25.3-14.7,36.7
		c-5,12.8,0.8,19.2,13.1,21.1c12.4,1.8,24.8,3,39.6,4.8c-8.3,8.7-15.9,16.3-23,24.4c-14.3,16.3-13.3,21.9,5.5,32
		c9.2,5,18.8,9.4,30.8,15.5c-11.6,5.8-21.2,10.5-30.6,15.5c-18.4,9.8-19.5,16.3-5.5,32.3c3.3,3.8,6.9,7.4,10.5,10.9
		c3.6,3.5,7.5,6.7,15,13.3c-13.3,1.4-22.2,2.3-31.2,3.2c-25.6,2.6-29.9,9.6-19.9,33.2c3.5,8.3,7.4,16.4,12.4,27.3
		c-13.2-3-24-5.7-34.9-8c-18.9-4-24.4,0.1-24.3,19.1c0,11.3,1.2,22.6,2,36c-12-7.6-22.3-14.7-33.1-20.7c-14.2-7.9-18.9-6-25.3,9
		c-2.4,5.5-3.7,11.5-5.6,17.2c-1.8,5.7-3.6,11.4-6.2,19.4c-8.1-10.4-14.6-19.6-22-28.2c-12.1-14.1-17.4-14.1-30.2-0.2
		c-4.1,4.4-7.5,9.5-11.2,14.2C280.7,597,277.5,601.3,272.9,607.4z M308.3,540.7c69.1,2.4,144.8-50.1,144.9-140.5
		c0.1-88.4-72-140.7-141.7-140.7c-81.3-0.1-146.6,60.9-146,139.8C166.2,488.7,239.4,541.8,308.3,540.7z"/>
	<path class="st0" d="M308.3,540.7c-68.9,1.1-142.1-51.9-142.8-141.4c-0.6-78.9,64.7-139.9,146-139.8c69.7,0,141.8,52.3,141.7,140.7
		C453.1,490.5,377.4,543,308.3,540.7z"/>
</g>
</svg>
