<svg enable-background="new 0 0 251.8 153.2" viewBox="0 0 251.8 153.2" xmlns="http://www.w3.org/2000/svg"><path d="m215.2 142.2c5.6.4 11.1.3 16.7-.4 4.1-.6 8.4-1.4 11.2-4.8 1.2-1.5 2-3.1 2.6-4.9 1.2-2.2 1.6-4.8 1.8-7.4 0-.2.1-.4.1-.6 1.1-5.6 2-11.3 2.7-17 2.8-24.6 1.5-49.5-.4-74.2-.4-5.6-.2-11.7-1.7-17.2-1.2-4.2-4.3-7.3-8-9.4-3.6-2.1-7.6-3.4-11.7-4.1-7.1-2-15.1-1.7-22.2-1.8-25.3-.6-50.7-.3-76 .8-11.4.4-22.6 1-33.8 1.8-.7 0-1.4-.1-2.1-.1-12.3-.8-24.2-1.6-36.4.6-11.8 2.1-23.6 4.8-35.2 7.7-8.6 2-16.2 5.8-19.6 14.5-3.9 10-3.2 22.1-3 32.6.3 12.7 1.4 25.3 1.9 38 .5 11.5-1.1 23.7.9 35.1 1.5 8.6 6.2 17.1 14.8 20.2 4.8 1.8 10.2 1.7 15.2 1.4 6.2-.4 12.4-.9 18.6-1.4 12.9-1 25.9-1.9 38.8-2.9 25.6-1.9 51.3-3.6 76.9-5.7l17.1-1.5m-18.2-139.3c-9.4.2-18.9.5-28.3.7 9.4-.4 18.9-.6 28.3-.7zm-93.1 1.7c3.1-.1 6.2 0 9.2.2-9.5.8-19.1 1.7-28.6 2.8-2 .2-4 .5-6.1.7 8.5-1.9 16.9-3.5 25.5-3.7zm-50.2 11.1c5.2-1.9 10.6-3.1 16-4.1 10.8-1.9 21.9-2.8 32.8-3.8 8.6-.8 17.2-1.5 25.7-2.1 3.3.2 6.6.4 9.9.4 15.3.2 30.6-.3 46-.7-22.5 1.5-44.9 2.9-67.3 4.4-13.2.9-26.4 1.5-39.5 2.8-6 .6-12.1 1.4-18 2.5-4.9.9-9.7 2.2-13.6 5.5-5.5 4.7-8 11.7-9.2 18.7.2-5.3 1.2-10.4 3.8-14.6 2.9-4.8 8.3-7.1 13.4-9zm-20.9 32.9c.2-9.6.1-22.1 8-29.1 3.2-2.8 7.3-4.3 11.3-5.4-.1 0-.1 0-.2.1-4.3 1.7-8.8 3.6-11.8 7.3-2.7 3.2-4.1 7.1-4.8 11.1-2 11.1-1.3 23-1.2 34.2.1 11.7.5 23.4 1.3 35 0 0 0 .1-.1.1-.1.1 0 .3.1.3.1 1 .1 2 .2 3 .1 1.5.2 2.9.3 4.4-.4.5-.7.9-1.1 1.4 0-20.8-2.4-41.5-2-62.4zm10.6 98.5c-8.3-7.4-8.7-19.4-8.5-29.7 0-1.9 0-3.8 0-5.6.4-.5.8-.9 1.1-1.4.1 2.1.3 4.2.4 6.3-.1.1-.1.2-.2.3-.1.2.1.3.3.3.5 6.6 1.3 13.2 3 19.4 1.4 4.9 3.7 9.8 7.6 13-1.3-.8-2.5-1.6-3.7-2.6zm-3-15.7c.2.4.3.9.5 1.3-.1.1-.1.2-.2.3-.1-.6-.2-1.1-.3-1.6zm7.2 16c-3.9-3.6-5.7-8.8-6.8-14.1l.3-.3c1.3 3.3 3 6.3 5.3 9-.3.4-.6.7-.8 1.1-.2.2.2.5.4.3.3-.3.6-.7.8-1 .7.8 1.4 1.5 2.2 2.3 2.2 1.9 4.5 3.2 6.9 4.1-.1.1-.1.1-.2.2-.2.2.1.6.3.3.1-.1.2-.2.3-.4 1.8.6 3.7 1 5.6 1.2-.1.1-.3.3-.4.4s0 .3.1.4c-5 .5-10 .2-14-3.5zm15.8 3.5c-.5.1-1.1.1-1.6.2 0 0 .1 0 .1-.1.2-.2.4-.4.7-.7 1.3.1 2.7.2 4.1.2-1.2.1-2.2.3-3.3.4zm24.4-.8c.3 0 .7-.1 1-.1 12.7-1.5 25.5-3 38.3-4.1 3.3-.3 6.7-.6 10-.8-.1.2.2.5.5.3.1-.1.2-.2.3-.3 2.9-.2 5.9-.4 8.8-.5-.1.1-.3.3-.4.4-.3.3.2.8.5.5s.6-.6.8-1c5.7-.3 11.4-.5 17.2-.5h6.6c-27.9 1.9-55.7 4-83.6 6.1zm84.4-8.2c-1.2 0-2.4 0-3.5 0 1.3-.1 2.5-.2 3.8-.3-.1.1-.2.2-.3.3zm1-.1.3-.3c8.5-.6 17-1.2 25.5-1.6 1.4-.1 2.7-.1 4.1-.2-.1.1-.2.2-.4.4-.3.3.1.7.4.4l.9-.9c3.4-.2 6.8-.3 10.2-.5-13.6 2.3-27.3 2.6-41 2.7zm40.2-.6c.7-.1 1.4-.3 2.2-.4v.3c-.8 0-1.5 0-2.2.1zm5.7-2.5c.3-.4.2-1.2-.5-1.2-4.2 0-8.3.1-12.5.2 2.8-2.7 5.4-5.6 7.9-8.6.3-.3-.2-.8-.5-.5-2.7 3.1-5.6 6.1-8.5 9.1-2.2.1-4.4.1-6.6.2 2-1.7 3.8-3.6 5.4-5.6.3-.4-.2-1-.6-.6-2 2.2-4.2 4.3-6.5 6.3-2.2.1-4.4.2-6.7.3 2.7-2.5 5.4-5 7.9-7.6.3-.3-.1-.7-.4-.4-3 2.6-5.9 5.3-8.8 8.1-2.1.1-4.1.3-6.2.4 2.4-2.3 4.9-4.6 7.3-7 .3-.3-.2-.7-.5-.5-2.6 2.5-5.2 5-7.8 7.5-2 .1-4 .3-6 .4 2.4-2.4 4.8-4.7 7.3-7 .3-.3-.2-.8-.5-.5-2.7 2.4-5.4 5-7.9 7.6-2.1.2-4.2.3-6.3.5 2.7-2.8 5.3-5.7 7.6-8.8.2-.3-.3-.6-.5-.4-2.6 3.2-5.3 6.3-8.2 9.3-2.6.2-5.2.5-7.8.7 2.9-3.3 6.1-6.5 9.4-9.5.3-.3-.1-.7-.4-.4-3.6 3.1-6.9 6.5-10 10-2.7.2-5.4.5-8.1.7 2.6-2.8 5.2-5.6 8-8.2.3-.3-.2-.7-.5-.5-3 2.8-5.8 5.7-8.6 8.8-1.3.1-2.6.2-3.9.4-1.6.1-3.2.3-4.8.5 3.5-3.5 7.1-7 10.6-10.6.3-.3-.1-.6-.4-.4-3.7 3.7-7.4 7.4-11.1 11.1-2.3.2-4.7.4-7 .7 2.6-2.2 5-4.5 7.2-7.1.2-.3-.1-.6-.4-.4-2.4 2.7-5 5.3-7.8 7.6-1.2.1-2.4.2-3.6.3-1.5.1-2.9.3-4.4.4 3.6-3.7 7.1-7.4 10.6-11.1.3-.3-.2-.7-.4-.4-3.7 3.8-7.3 7.7-11 11.6-2.6.2-5.1.5-7.7.7 3.8-3.9 7.5-8 11.3-11.9.3-.3-.1-.7-.4-.4-4 4-8 8-11.7 12.3-.1 0-.1 0-.2 0-1.9.2-3.9.3-5.8.5 2.6-2.8 5.2-5.7 7.8-8.6.2-.3-.1-.6-.4-.4-2.7 3-5.5 6-8.1 9.1-2.2.2-4.4.4-6.6.6 5.1-5.2 10.3-10.2 15.6-15.2.3-.3-.1-.8-.5-.5-5.8 4.9-11.2 10.2-16.4 15.8-2.4.2-4.9.4-7.3.6 4.2-4.1 8.3-8.3 12.4-12.4.3-.3-.2-.8-.5-.5-4.4 4.3-8.8 8.6-13 13-3 .2-6 .5-9 .7 5.5-5.3 10.8-10.7 16.1-16.1.3-.3-.2-.8-.5-.5-5.6 5.5-11.3 11-16.7 16.6-2.7.2-5.4.4-8.1.6 4-3.8 7.9-7.6 11.8-11.5.2-.2-.1-.5-.3-.3-4 4-8 8-12.1 11.9-2.7.2-5.5.4-8.2.3 5.8-5.8 11.5-11.8 17.2-17.8.2-.2-.1-.6-.4-.4-5.9 6-11.8 12-17.5 18.2-2-.1-3.9-.4-5.8-.9 4.3-4.7 8.7-9.3 13.5-13.7.3-.2-.1-.6-.4-.4-4.9 4.3-9.5 8.9-13.7 13.9-.8-.3-1.5-.6-2.3-.9-1.2-.6-2.3-1.3-3.4-2.1 4.4-4.5 8.5-9.4 12.3-14.3.2-.3-.2-.7-.4-.4-3.9 5-8.1 9.7-12.3 14.5-1.1-.9-2.1-1.9-3.1-3 3.4-4 6.8-8 10.5-11.7.3-.3-.1-.7-.4-.4-3.7 3.7-7.3 7.6-10.5 11.7-1.1-1.4-2.2-2.9-3-4.4 3.5-3.5 6.9-7.2 10-11.1.2-.2-.1-.6-.3-.3-3.2 3.8-6.5 7.4-10 11-.1-.1-.1-.2-.2-.3-.6-1.2-1.2-2.4-1.7-3.7 3.7-3.8 7.1-7.7 10.7-11.6.2-.2-.1-.5-.3-.3-3.6 3.7-7.3 7.4-10.6 11.3-.4-1.2-.8-2.4-1.2-3.6 4-4.8 8.1-9.6 12.5-14.1.2-.3-.1-.6-.4-.4-4.3 4.4-8.5 9.1-12.3 14-.5-1.8-.9-3.6-1.2-5.4 4.7-5.2 9.3-10.4 13.8-15.7.3-.3-.2-.7-.4-.4-4.5 5.1-9.1 10.2-13.5 15.4-.4-2.1-.6-4.2-.8-6.4 4.9-6.2 10.1-12 15.9-17.3.3-.3-.1-.7-.4-.4-5.7 5.2-11 10.8-15.6 17-.2-2-.3-4-.5-5.9 4-4.8 8-9.6 12.1-14.2.2-.3-.2-.7-.4-.4-4.1 4.5-8 9-11.8 13.8-.1-2.3-.3-4.6-.4-6.8 0-.1 0-.2 0-.3 3.2-4.1 6.6-8.1 10.2-11.9.3-.3-.1-.7-.4-.4-3.5 3.6-6.8 7.4-9.8 11.4-.1-1.8-.2-3.7-.3-5.5 3.7-4 7-8.6 10.2-13 .2-.3-.2-.5-.4-.3-3.1 4-6.6 8.1-9.7 12.4-.1-1.3-.1-2.7-.2-4 4.1-5.8 8.2-11.6 12.5-17.3.2-.2-.2-.6-.4-.3-4.3 5.4-8.3 11-12.1 16.8-.1-2.6-.2-5.2-.2-7.8 4.2-5.1 8.4-10 12.8-14.9.2-.3-.2-.7-.4-.4-4.4 4.6-8.5 9.5-12.5 14.5 0-2.2-.1-4.4-.1-6.6 3.1-3.6 6.2-7.2 9.3-10.9.2-.2-.1-.5-.3-.3-3 3.5-6 7.1-9 10.6 0-2 0-4.1 0-6.1 5-5.4 9.9-10.9 14.6-16.6.2-.2-.1-.5-.3-.3-4.7 5.5-9.4 11-14.2 16.3 0-.4 0-.8 0-1.3 0-2.1 0-4.1.1-6.2 3.2-4.3 6.7-8.2 10.7-11.9.3-.2-.1-.6-.4-.4-3.9 3.4-7.4 7.2-10.3 11.3 0-2 .1-4 .2-5.9 4.2-4.9 8.2-9.9 12.2-14.9.2-.2-.1-.6-.3-.3-4 4.7-8 9.5-11.8 14.3.1-1.7.2-3.4.4-5.1 3.7-4.4 7.2-9 11.5-13 .2-.2-.1-.6-.3-.3-3.8 3.4-7.9 7.3-10.9 11.7.4-3.1 1-6.1 1.8-9.1 1.3-4.4 3.4-8.7 6.9-11.9 4.3-3.9 10-5 15.5-5.9 12.2-2.1 24.5-2.8 36.8-3.6 24.5-1.6 48.9-3.1 73.4-4.7 23.8-1.5 47.9-4.2 71.7-2.4 5.4.4 11.2.8 16.1 3.1 5.4 2.6 8.2 7.3 9.6 12.9 2.9 11.6 3.2 24.1 3.3 36s-.2 23.8-.3 35.7c-.1 6-.2 12-.2 18-.1 5.4 1.3 13.3-2.4 17.8-3.8 4.6-10.2 5-15.6 5.2-3 .1-8.9-.7-10.8 2.5m11-.4c-2.4.2-4.9.4-7.3.7-.1-.1-.2-.2-.3-.3 1.3-.4 3.2-.2 4.5-.3 1.1 0 2.1-.1 3.1-.1zm10 3.1c-5.9 1.1-11.9 1.2-17.9.7.1-.3.2-.5.3-.8 6-.6 12-1.1 18-1.7 2.2-.2 4.5-.5 6.6-1.3-1.9 1.8-4.4 2.6-7 3.1zm11.6-16.6c0 .4 0 .8-.1 1.3-.2 1.2-.5 2.4-.8 3.5-.3 1.3-.6 2.7-1.1 4-1.9 2.9-5.3 3.3-8.6 3.7-1.4.1-2.8.3-4.1.4 3.7-.7 7.4-2.3 9.9-5.3 3.2-3.9 2.8-9 2.9-13.8.2-13.1.3-26.2.5-39.4.2-12.7.4-25.4-.6-38.1-.8-9.6-1.1-23-9-29.8-4.5-3.9-10.7-5.4-17-6 3 0 6.1.2 9.2.6 4.3 1 8.3 2.8 11.3 6.2 7.6 8.6 6.4 23.3 6.9 34 .6 13.1 1 26.2 1.1 39.3.1 13.2.1 26.3-.5 39.4zm4.1-34c-.3 6.7-.8 13.3-1.6 20 0-2.1.1-4.3.1-6.4.3-25 .3-50.3-2.1-75.2-.7-7.3-2.5-14.8-7.8-19.8 2.1 1.1 3.9 2.6 5.5 4.4 4.3 5 3.5 13.5 4 19.8.5 6.4.9 12.7 1.3 19.1.7 12.7 1.1 25.4.6 38.1z" fill="#6cb33f"/></svg>