<svg enable-background="new 0 0 44.2 44.2" viewBox="0 0 44.2 44.2" xmlns="http://www.w3.org/2000/svg"><circle cx="22.1" cy="22.1" fill="#6cb33f" r="18"/><circle cx="22.1" cy="22.1" fill="none" r="21.6" stroke="#6cb33f" stroke-miterlimit="10"/><g fill="#fff"><path d="m21.9 20.7c.1 0 .1 0 0 0h.3c3.4 0 6.2-2.8 6.2-6.2s-2.8-6.2-6.2-6.2c-.1 0-.1 0-.2 0 0 0 0 0-.1 0-3.4 0-6.1 2.8-6.1 6.2s2.7 6.2 6.1 6.2z"/><path d="m31.5 34.3-.1-.3c-.5-2.2-2-7.4-3-8.6-1.3-2.4-4.9-2.4-5.2-2.4-.1 0-.1 0-.1 0h-1.2-1.9s-2.8-.1-4.5 2.2c-.9 1.2-2.2 6.1-2.8 8.5-.1.4-.1.6-.1.6-.2.9.3 1.6 1.3 1.6h8 8.2.1c1 0 1.6-.7 1.3-1.6z"/></g></svg>