<svg enable-background="new 0 0 36 36" viewBox="0 0 36 36" xmlns="http://www.w3.org/2000/svg"><circle cx="18" cy="18" fill="#eee" r="18"/><path d="m18 4c-7.7 0-14 6.3-14 14s6.3 14 14 14 14-6.3 14-14-6.3-14-14-14zm0 26.1c-6.7 0-12.1-5.4-12.1-12.1s5.4-12.1 12.1-12.1 12.1 5.4 12.1 12.1-5.4 12.1-12.1 12.1z" fill="#fff"/><path d="m18 5.9c-6.7 0-12.1 5.4-12.1 12.1s5.4 12.1 12.1 12.1 12.1-5.4 12.1-12.1-5.4-12.1-12.1-12.1zm9.1 12.5h-7.9c-.2.5-.7.9-1.2.9-.3 0-.5-.1-.7-.2l-3.9 4.1c.1.1.1.2.1.4 0 .4-.3.8-.8.8-.4 0-.8-.3-.8-.8s.3-.8.8-.8c.1 0 .2 0 .3.1l4-4.1c-.2-.2-.3-.5-.3-.8 0-.1 0-.2 0-.3l-3.3-3.3c-.1-.1-.2-.3-.2-.5 0-.4.3-.7.7-.7.2 0 .4.1.5.2l3.3 3.3h.2c.3 0 .5.1.8.2l2.1-2.2v-.1c0-.3.2-.5.5-.5s.5.2.5.5-.2.5-.5.5c-.1 0-.2 0-.3-.1l-2.1 2.1c.1.1.1.2.2.3h7.9c.3 0 .5.2.5.5.1.4-.1.5-.4.5z" fill="#ecf0f0"/><g fill="#fff"><path d="m17.8 16.7-3.3-3.3c-.1-.1-.3-.2-.5-.2-.4 0-.7.3-.7.7 0 .2.1.4.2.5l3.3 3.3c0-.5.4-.9 1-1z"/><path d="m27.1 17.5h-7.9c0 .1.1.3.1.4 0 .2 0 .3-.1.5h7.9c.3 0 .5-.1.5-.4s-.2-.5-.5-.5z"/><path d="m16.9 18.8-4 4.1c-.1 0-.2-.1-.3-.1-.4 0-.8.3-.8.8s.3.8.8.8c.4 0 .8-.3.8-.8 0-.2 0-.3-.1-.4l3.9-4.1c-.1-.1-.2-.2-.3-.3z"/><path d="m19.1 17.2 2.1-2.1c.1 0 .2.1.3.1.3 0 .5-.2.5-.5s-.2-.5-.5-.5-.5.2-.5.5v.1l-2.1 2.2s.1.1.2.2z"/><path d="m19.2 17.6c0-.1-.1-.2-.2-.3s-.2-.2-.3-.3c-.2-.2-.5-.2-.8-.2-.1 0-.2 0-.2 0-.5.1-.9.5-1 1v.3c0 .3.1.6.3.8l.3.3c.2.1.5.2.7.2.6 0 1.1-.4 1.2-.9.1-.1.1-.3.1-.4 0-.3 0-.4-.1-.5zm-1.2-.3c.4 0 .6.3.6.7s-.3.7-.6.7c-.4 0-.7-.3-.7-.7s.3-.7.7-.7z"/></g><path d="m18 18.7c.4 0 .6-.3.6-.7s-.3-.7-.6-.7c-.4 0-.7.3-.7.7s.3.7.7.7z" fill="#ecf0f0"/></svg>