<?xml version="1.0" encoding="utf-8"?>
<!-- Generator: Adobe Illustrator 22.1.0, SVG Export Plug-In . SVG Version: 6.00 Build 0)  -->
<svg version="1.1" xmlns="http://www.w3.org/2000/svg" xmlns:xlink="http://www.w3.org/1999/xlink" x="0px" y="0px"
	 viewBox="0 0 44.2 44.2" style="enable-background:new 0 0 44.2 44.2;" xml:space="preserve">
<style type="text/css">
	.st0{fill:#FFFFFF;}
	.st1{fill:#EEEEEE;}
	.st2{fill:#6CB33F;}
	.st3{fill:none;stroke:#EEEEEE;stroke-miterlimit:10;}
	.st4{filter:url(#Adobe_OpacityMaskFilter);}
	.st5{opacity:0.16;mask:url(#SVGID_1_);}
	.st6{fill:none;stroke:#000000;stroke-miterlimit:10;}
	.st7{filter:url(#Adobe_OpacityMaskFilter_1_);}
	.st8{opacity:0.16;mask:url(#SVGID_2_);}
	.st9{filter:url(#Adobe_OpacityMaskFilter_2_);}
	.st10{opacity:0.16;mask:url(#SVGID_3_);}
	.st11{filter:url(#Adobe_OpacityMaskFilter_3_);}
	.st12{opacity:0.16;mask:url(#SVGID_4_);}
	.st13{fill:#333333;}
	.st14{fill:none;stroke:#CCCCCC;stroke-width:3;stroke-miterlimit:10;}
	.st15{fill:#80B75C;}
	.st16{fill:#CCCCCC;}
	.st17{filter:url(#Adobe_OpacityMaskFilter_4_);}
	.st18{opacity:0.16;mask:url(#SVGID_5_);}
	.st19{fill:none;stroke:#CCCCCC;stroke-miterlimit:10;}
	.st20{filter:url(#Adobe_OpacityMaskFilter_5_);}
	.st21{opacity:0.16;mask:url(#SVGID_6_);}
	.st22{filter:url(#Adobe_OpacityMaskFilter_6_);}
	.st23{opacity:0.16;mask:url(#SVGID_7_);}
	.st24{filter:url(#Adobe_OpacityMaskFilter_7_);}
	.st25{opacity:0.16;mask:url(#SVGID_8_);}
	.st26{filter:url(#Adobe_OpacityMaskFilter_8_);}
	.st27{opacity:0.16;mask:url(#SVGID_9_);}
	.st28{filter:url(#Adobe_OpacityMaskFilter_9_);}
	.st29{opacity:0.16;mask:url(#SVGID_10_);}
	.st30{filter:url(#Adobe_OpacityMaskFilter_10_);}
	.st31{opacity:0.16;mask:url(#SVGID_11_);}
	.st32{filter:url(#Adobe_OpacityMaskFilter_11_);}
	.st33{opacity:0.16;mask:url(#SVGID_12_);}
	.st34{filter:url(#Adobe_OpacityMaskFilter_12_);}
	.st35{opacity:0.16;mask:url(#SVGID_13_);}
	.st36{filter:url(#Adobe_OpacityMaskFilter_13_);}
	.st37{opacity:0.16;mask:url(#SVGID_14_);}
	.st38{fill:none;stroke:#333333;stroke-width:8;stroke-linecap:round;stroke-linejoin:round;stroke-miterlimit:10;}
	.st39{fill:#CCCCCC;stroke:#6CB33F;stroke-width:2;stroke-miterlimit:10;}
	.st40{fill:#ECF0F0;}
	.st41{filter:url(#Adobe_OpacityMaskFilter_14_);}
	.st42{opacity:0.16;mask:url(#SVGID_15_);}
	.st43{filter:url(#Adobe_OpacityMaskFilter_15_);}
	.st44{opacity:0.16;mask:url(#SVGID_16_);}
	.st45{filter:url(#Adobe_OpacityMaskFilter_16_);}
	.st46{opacity:0.16;mask:url(#SVGID_17_);}
	.st47{fill:none;stroke:#6CB33F;stroke-miterlimit:10;}
	.st48{filter:url(#Adobe_OpacityMaskFilter_17_);}
	.st49{opacity:0.16;mask:url(#SVGID_18_);}
	.st50{filter:url(#Adobe_OpacityMaskFilter_18_);}
	.st51{opacity:0.16;mask:url(#SVGID_19_);}
	.st52{filter:url(#Adobe_OpacityMaskFilter_19_);}
	.st53{opacity:0.16;mask:url(#SVGID_20_);}
	.st54{filter:url(#Adobe_OpacityMaskFilter_20_);}
	.st55{opacity:0.16;mask:url(#SVGID_21_);}
	.st56{filter:url(#Adobe_OpacityMaskFilter_21_);}
	.st57{opacity:0.16;mask:url(#SVGID_22_);}
	.st58{filter:url(#Adobe_OpacityMaskFilter_22_);}
	.st59{opacity:0.16;mask:url(#SVGID_23_);}
	.st60{filter:url(#Adobe_OpacityMaskFilter_23_);}
	.st61{opacity:0.16;mask:url(#SVGID_24_);}
	.st62{filter:url(#Adobe_OpacityMaskFilter_24_);}
	.st63{opacity:0.16;mask:url(#SVGID_25_);}
	.st64{filter:url(#Adobe_OpacityMaskFilter_25_);}
	.st65{opacity:0.16;mask:url(#SVGID_26_);}
	.st66{filter:url(#Adobe_OpacityMaskFilter_26_);}
	.st67{opacity:0.16;mask:url(#SVGID_27_);}
	.st68{filter:url(#Adobe_OpacityMaskFilter_27_);}
	.st69{opacity:0.16;mask:url(#SVGID_28_);}
	.st70{filter:url(#Adobe_OpacityMaskFilter_28_);}
	.st71{opacity:0.16;mask:url(#SVGID_29_);}
	.st72{filter:url(#Adobe_OpacityMaskFilter_29_);}
	.st73{opacity:0.16;mask:url(#SVGID_30_);}
	.st74{filter:url(#Adobe_OpacityMaskFilter_30_);}
	.st75{opacity:0.16;mask:url(#SVGID_31_);}
	.st76{filter:url(#Adobe_OpacityMaskFilter_31_);}
	.st77{opacity:0.16;mask:url(#SVGID_32_);}
	.st78{filter:url(#Adobe_OpacityMaskFilter_32_);}
	.st79{opacity:0.16;mask:url(#SVGID_33_);}
	.st80{filter:url(#Adobe_OpacityMaskFilter_33_);}
	.st81{opacity:0.16;mask:url(#SVGID_34_);}
	.st82{filter:url(#Adobe_OpacityMaskFilter_34_);}
	.st83{opacity:0.16;mask:url(#SVGID_35_);}
	.st84{filter:url(#Adobe_OpacityMaskFilter_35_);}
	.st85{opacity:0.16;mask:url(#SVGID_36_);}
	.st86{filter:url(#Adobe_OpacityMaskFilter_36_);}
	.st87{opacity:0.16;mask:url(#SVGID_37_);}
	.st88{filter:url(#Adobe_OpacityMaskFilter_37_);}
	.st89{opacity:0.16;mask:url(#SVGID_38_);}
	.st90{filter:url(#Adobe_OpacityMaskFilter_38_);}
	.st91{opacity:0.16;mask:url(#SVGID_39_);}
	.st92{filter:url(#Adobe_OpacityMaskFilter_39_);}
	.st93{opacity:0.16;mask:url(#SVGID_40_);}
	.st94{filter:url(#Adobe_OpacityMaskFilter_40_);}
	.st95{opacity:0.16;mask:url(#SVGID_41_);}
	.st96{filter:url(#Adobe_OpacityMaskFilter_41_);}
	.st97{opacity:0.16;mask:url(#SVGID_42_);}
	.st98{filter:url(#Adobe_OpacityMaskFilter_42_);}
	.st99{opacity:0.16;mask:url(#SVGID_43_);}
	.st100{filter:url(#Adobe_OpacityMaskFilter_43_);}
	.st101{opacity:0.16;mask:url(#SVGID_44_);}
	.st102{filter:url(#Adobe_OpacityMaskFilter_44_);}
	.st103{opacity:0.16;mask:url(#SVGID_45_);}
	.st104{filter:url(#Adobe_OpacityMaskFilter_45_);}
	.st105{opacity:0.16;mask:url(#SVGID_46_);}
	.st106{filter:url(#Adobe_OpacityMaskFilter_46_);}
	.st107{opacity:0.16;mask:url(#SVGID_47_);}
	.st108{filter:url(#Adobe_OpacityMaskFilter_47_);}
	.st109{opacity:0.16;mask:url(#SVGID_48_);}
	.st110{filter:url(#Adobe_OpacityMaskFilter_48_);}
	.st111{opacity:0.16;mask:url(#SVGID_49_);}
	.st112{filter:url(#Adobe_OpacityMaskFilter_49_);}
	.st113{opacity:0.16;mask:url(#SVGID_50_);}
	.st114{filter:url(#Adobe_OpacityMaskFilter_50_);}
	.st115{opacity:0.16;mask:url(#SVGID_51_);}
	.st116{filter:url(#Adobe_OpacityMaskFilter_51_);}
	.st117{opacity:0.16;mask:url(#SVGID_52_);}
	.st118{filter:url(#Adobe_OpacityMaskFilter_52_);}
	.st119{opacity:0.16;mask:url(#SVGID_53_);}
	.st120{filter:url(#Adobe_OpacityMaskFilter_53_);}
	.st121{opacity:0.16;mask:url(#SVGID_54_);}
	.st122{filter:url(#Adobe_OpacityMaskFilter_54_);}
	.st123{opacity:0.16;mask:url(#SVGID_55_);}
	.st124{filter:url(#Adobe_OpacityMaskFilter_55_);}
	.st125{opacity:0.16;mask:url(#SVGID_56_);}
	.st126{filter:url(#Adobe_OpacityMaskFilter_56_);}
	.st127{opacity:0.16;mask:url(#SVGID_57_);}
</style>
<g id="Results">
</g>
<g id="Question_4">
</g>
<g id="Question_3">
	<g id="Progress_3_x2F_4_6_">
		<circle class="st47" cx="22.1" cy="22.1" r="21.6"/>
		<circle class="st2" cx="22.1" cy="22.1" r="18"/>
		<g id="clock_7_">
			<g>
				<path class="st0" d="M21.9,8.1C14.2,8.2,8,14.5,8.1,22.3c0.1,7.7,6.4,13.9,14.2,13.8s13.9-6.4,13.8-14.2S29.7,8,21.9,8.1z
					 M22.2,34.2c-6.7,0.1-12.2-5.3-12.2-11.9C9.9,15.6,15.3,10.1,22,10c6.7-0.1,12.2,5.3,12.2,11.9C34.3,28.6,28.9,34.1,22.2,34.2z"
					/>
				<path class="st2" d="M22,10c-6.7,0.1-12,5.6-11.9,12.2c0.1,6.7,5.6,12,12.2,11.9s12-5.6,11.9-12.2C34.1,15.3,28.6,9.9,22,10z
					 M31.2,22.4l-7.9,0.1c-0.2,0.5-0.7,0.9-1.2,0.9c-0.3,0-0.5-0.1-0.7-0.2l-3.9,4.1c0.1,0.1,0.1,0.2,0.1,0.4c0,0.4-0.3,0.8-0.8,0.8
					c-0.4,0-0.8-0.3-0.8-0.8c0-0.4,0.3-0.8,0.8-0.8c0.1,0,0.2,0,0.3,0.1l3.9-4.1c-0.2-0.2-0.3-0.5-0.3-0.8c0-0.1,0-0.2,0-0.3
					l-3.4-3.3l0,0c-0.1-0.1-0.2-0.3-0.2-0.5c0-0.4,0.3-0.7,0.7-0.7c0.2,0,0.4,0.1,0.5,0.2l0,0l3.4,3.3c0.1,0,0.2,0,0.2,0
					c0.3,0,0.5,0.1,0.8,0.2l2.1-2.2c0,0,0-0.1,0-0.1c0-0.3,0.2-0.6,0.5-0.6c0.3,0,0.6,0.2,0.6,0.5c0,0.3-0.2,0.6-0.5,0.6
					c-0.1,0-0.2,0-0.3-0.1l-2.1,2.1c0.1,0.1,0.1,0.2,0.2,0.3l7.9-0.1c0.3,0,0.5,0.2,0.5,0.5C31.7,22.3,31.5,22.4,31.2,22.4z"/>
				<path class="st0" d="M21.8,20.8l-3.4-3.3l0,0c-0.1-0.1-0.3-0.2-0.5-0.2c-0.4,0-0.7,0.3-0.7,0.7c0,0.2,0.1,0.4,0.2,0.5l0,0
					l3.4,3.3C20.9,21.3,21.3,20.9,21.8,20.8z"/>
				<path class="st0" d="M31.2,21.5l-7.9,0.1c0,0.1,0.1,0.3,0.1,0.4c0,0.2,0,0.3-0.1,0.5l7.9-0.1c0.3,0,0.5-0.1,0.5-0.5
					C31.7,21.7,31.5,21.5,31.2,21.5z"/>
				<path class="st0" d="M21.1,22.9L17.1,27C17,27,16.9,27,16.8,27c-0.4,0-0.8,0.4-0.8,0.8c0,0.4,0.4,0.8,0.8,0.8
					c0.4,0,0.8-0.4,0.8-0.8c0-0.2,0-0.3-0.1-0.4l3.9-4.1C21.2,23.1,21.1,23,21.1,22.9z"/>
				<path class="st0" d="M23.2,21.3l2.1-2.2c0.1,0,0.2,0.1,0.3,0.1c0.3,0,0.5-0.3,0.5-0.6c0-0.3-0.3-0.5-0.6-0.5
					c-0.3,0-0.5,0.3-0.5,0.6c0,0.1,0,0.1,0,0.1L22.8,21C23,21.1,23.1,21.2,23.2,21.3z"/>
				<path class="st0" d="M23.3,21.7c0-0.1-0.1-0.2-0.2-0.3c-0.1-0.1-0.2-0.2-0.3-0.3c-0.2-0.1-0.5-0.2-0.8-0.2c-0.1,0-0.2,0-0.2,0
					c-0.5,0.1-0.9,0.5-1,1c0,0.1,0,0.2,0,0.3c0,0.3,0.1,0.6,0.3,0.8c0.1,0.1,0.2,0.2,0.3,0.3c0.2,0.1,0.5,0.2,0.7,0.2
					c0.6,0,1-0.4,1.2-0.9c0-0.1,0.1-0.3,0.1-0.4C23.4,21.9,23.4,21.8,23.3,21.7z M22.1,21.4c0.4,0,0.7,0.3,0.7,0.6s-0.3,0.7-0.6,0.7
					c-0.4,0-0.7-0.3-0.7-0.7C21.4,21.7,21.7,21.4,22.1,21.4z"/>
				<path class="st2" d="M22.1,22.8c0.4,0,0.6-0.3,0.6-0.7s-0.3-0.7-0.7-0.6c-0.4,0-0.7,0.3-0.7,0.7C21.4,22.5,21.7,22.8,22.1,22.8z
					"/>
			</g>
		</g>
	</g>
</g>
<g id="Question_2">
</g>
<g id="Question_1">
</g>
</svg>
